<svg width="18" height="18" viewBox="0 0 18 18" fill="none" xmlns="http://www.w3.org/2000/svg">
<g clip-path="url(#clip0)">
<path d="M17.9994 9.05497C17.9994 4.05322 13.9697 -0.00128174 8.99944 -0.00128174C4.02694 -0.000156738 -0.00280762 4.05322 -0.00280762 9.0561C-0.00280762 13.5752 3.28894 17.3215 7.59094 18.001V11.6728H5.30719V9.0561H7.59319V7.05922C7.59319 4.79009 8.93757 3.53684 10.9929 3.53684C11.9784 3.53684 13.0078 3.71347 13.0078 3.71347V5.94097H11.8727C10.7556 5.94097 10.4068 6.63959 10.4068 7.35622V9.05497H12.9021L12.5038 11.6717H10.4057V17.9998C14.7077 17.3203 17.9994 13.5741 17.9994 9.05497Z" fill="white"/>
</g>
<defs>
<clipPath id="clip0">
<rect width="18" height="18" fill="white"/>
</clipPath>
</defs>
</svg>
