<svg width="18" height="18" viewBox="0 0 18 18" fill="none" xmlns="http://www.w3.org/2000/svg">
<g clip-path="url(#clip0)">
<path d="M17.4881 7.37773C17.5931 7.98181 17.6454 8.59386 17.6445 9.20698C17.6445 11.9452 16.6658 14.2605 14.9625 15.8276H14.9648C13.4753 17.2035 11.4277 18 9 18C6.61305 18 4.32387 17.0518 2.63604 15.3639C0.948212 13.6761 0 11.3869 0 8.99998C0 6.61303 0.948212 4.32385 2.63604 2.63602C4.32387 0.948195 6.61305 -1.64792e-05 9 -1.64792e-05C11.2342 -0.0261821 13.3918 0.81317 15.021 2.34223L12.4515 4.91173C11.5227 4.02633 10.2831 3.54147 9 3.56173C6.65213 3.56173 4.6575 5.14573 3.9465 7.27873C3.56952 8.39643 3.56952 9.60691 3.9465 10.7246H3.94987C4.66425 12.8542 6.6555 14.4382 9.00338 14.4382C10.2161 14.4382 11.2579 14.1277 12.0656 13.5787H12.0623C12.5313 13.268 12.9325 12.8655 13.2416 12.3954C13.5508 11.9254 13.7616 11.3976 13.8611 10.8439H9V7.37886H17.4881V7.37773Z" fill="white"/>
</g>
<defs>
<clipPath id="clip0">
<rect width="18" height="18" fill="white"/>
</clipPath>
</defs>
</svg>
