<svg width="18" height="18" viewBox="0 0 18 18" fill="none" xmlns="http://www.w3.org/2000/svg">
<path d="M9 0C6.55762 0 6.2505 0.01125 5.29087 0.054C4.33125 0.099 3.67762 0.24975 3.105 0.4725C2.50436 0.698421 1.9603 1.0528 1.51088 1.51088C1.05309 1.96053 0.698746 2.50452 0.4725 3.105C0.24975 3.6765 0.097875 4.33125 0.054 5.2875C0.01125 6.24937 0 6.55538 0 9.00113C0 11.4446 0.01125 11.7506 0.054 12.7103C0.099 13.6688 0.24975 14.3224 0.4725 14.895C0.703125 15.4867 1.01025 15.9885 1.51088 16.4891C2.01038 16.9897 2.51213 17.298 3.10388 17.5275C3.67763 17.7502 4.33013 17.9021 5.28863 17.946C6.24938 17.9888 6.55538 18 9 18C11.4446 18 11.7495 17.9888 12.7103 17.946C13.6676 17.901 14.3235 17.7502 14.8961 17.5275C15.4964 17.3015 16.04 16.9471 16.4891 16.4891C16.9897 15.9885 17.2969 15.4867 17.5275 14.895C17.7491 14.3224 17.901 13.6688 17.946 12.7103C17.9888 11.7506 18 11.4446 18 9C18 6.55538 17.9888 6.24938 17.946 5.28863C17.901 4.33125 17.7491 3.6765 17.5275 3.105C17.3013 2.5045 16.9469 1.96051 16.4891 1.51088C16.0398 1.05264 15.4957 0.698226 14.895 0.4725C14.3212 0.24975 13.6665 0.097875 12.7091 0.054C11.7484 0.01125 11.4435 0 8.99775 0H9.00113H9ZM8.19337 1.62225H9.00113C11.4041 1.62225 11.6887 1.63013 12.6371 1.674C13.5146 1.71338 13.9916 1.86075 14.3089 1.98338C14.7285 2.1465 15.0289 2.34225 15.3439 2.65725C15.6589 2.97225 15.8535 3.2715 16.0166 3.69225C16.1404 4.00838 16.2866 4.48538 16.326 5.36287C16.3699 6.31125 16.3789 6.59588 16.3789 8.99775C16.3789 11.3996 16.3699 11.6854 16.326 12.6337C16.2866 13.5112 16.1392 13.9871 16.0166 14.3044C15.8723 14.6952 15.642 15.0485 15.3427 15.3383C15.0277 15.6532 14.7285 15.8479 14.3078 16.011C13.9928 16.1348 13.5157 16.281 12.6371 16.3215C11.6887 16.3643 11.4041 16.3744 9.00113 16.3744C6.59813 16.3744 6.31238 16.3643 5.364 16.3215C4.4865 16.281 4.01062 16.1348 3.69338 16.011C3.30244 15.8669 2.94877 15.637 2.65837 15.3383C2.35884 15.048 2.12819 14.6944 1.98338 14.3032C1.86075 13.9871 1.71338 13.5101 1.674 12.6326C1.63125 11.6842 1.62225 11.3996 1.62225 8.9955C1.62225 6.5925 1.63125 6.309 1.674 5.36062C1.7145 4.48312 1.86075 4.00612 1.9845 3.68887C2.14762 3.26925 2.34337 2.96887 2.65837 2.65387C2.97337 2.33888 3.27262 2.14425 3.69338 1.98112C4.01062 1.85738 4.4865 1.71113 5.364 1.67062C6.19425 1.63238 6.516 1.62113 8.19337 1.62V1.62225ZM13.8049 3.11625C13.663 3.11625 13.5226 3.14419 13.3916 3.19846C13.2605 3.25274 13.1415 3.33229 13.0412 3.43257C12.9409 3.53286 12.8614 3.65192 12.8071 3.78295C12.7528 3.91398 12.7249 4.05442 12.7249 4.19625C12.7249 4.33808 12.7528 4.47852 12.8071 4.60955C12.8614 4.74058 12.9409 4.85964 13.0412 4.95993C13.1415 5.06021 13.2605 5.13976 13.3916 5.19404C13.5226 5.24831 13.663 5.27625 13.8049 5.27625C14.0913 5.27625 14.366 5.16246 14.5686 4.95993C14.7711 4.75739 14.8849 4.48268 14.8849 4.19625C14.8849 3.90982 14.7711 3.63511 14.5686 3.43257C14.366 3.23004 14.0913 3.11625 13.8049 3.11625ZM9.00113 4.3785C8.38808 4.36894 7.77926 4.48142 7.2101 4.70941C6.64094 4.9374 6.12283 5.27633 5.68592 5.70648C5.24901 6.13662 4.90203 6.64939 4.6652 7.21492C4.42836 7.78045 4.30639 8.38744 4.30639 9.00056C4.30639 9.61368 4.42836 10.2207 4.6652 10.7862C4.90203 11.3517 5.24901 11.8645 5.68592 12.2946C6.12283 12.7248 6.64094 13.0637 7.2101 13.2917C7.77926 13.5197 8.38808 13.6322 9.00113 13.6226C10.2145 13.6037 11.3717 13.1084 12.2231 12.2437C13.0745 11.3789 13.5516 10.2141 13.5516 9.00056C13.5516 7.78706 13.0745 6.62221 12.2231 5.75747C11.3717 4.89272 10.2145 4.39743 9.00113 4.3785ZM9.00113 5.99963C9.79687 5.99963 10.56 6.31573 11.1227 6.87841C11.6854 7.44109 12.0015 8.20425 12.0015 9C12.0015 9.79575 11.6854 10.5589 11.1227 11.1216C10.56 11.6843 9.79687 12.0004 9.00113 12.0004C8.20538 12.0004 7.44222 11.6843 6.87954 11.1216C6.31686 10.5589 6.00075 9.79575 6.00075 9C6.00075 8.20425 6.31686 7.44109 6.87954 6.87841C7.44222 6.31573 8.20538 5.99963 9.00113 5.99963Z" fill="white"/>
</svg>
