<svg width="19" height="18" viewBox="0 0 19 18" fill="none" xmlns="http://www.w3.org/2000/svg">
<g clip-path="url(#clip0)">
<path d="M16.6497 5.33375C16.6612 5.49364 16.6612 5.65357 16.6612 5.81346C16.6612 10.6903 12.9492 16.3096 6.16497 16.3096C4.07486 16.3096 2.13325 15.7043 0.5 14.6536C0.796965 14.6878 1.08247 14.6992 1.39086 14.6992C3.11545 14.6992 4.70304 14.1168 5.9708 13.1231C4.34898 13.0888 2.98984 12.0267 2.52155 10.5647C2.75 10.599 2.97841 10.6218 3.21828 10.6218C3.54949 10.6218 3.88073 10.5761 4.18909 10.4962C2.49874 10.1535 1.23093 8.66878 1.23093 6.87563V6.82997C1.72203 7.10408 2.29314 7.2754 2.89843 7.29821C1.90477 6.63576 1.25379 5.50507 1.25379 4.22587C1.25379 3.54061 1.43649 2.91244 1.75631 2.36421C3.5723 4.60278 6.30201 6.06469 9.36289 6.22461C9.3058 5.9505 9.27152 5.66499 9.27152 5.37945C9.27152 3.34644 10.9162 1.69037 12.9606 1.69037C14.0228 1.69037 14.9822 2.1358 15.656 2.85534C16.4898 2.69545 17.2893 2.38706 17.9974 1.96448C17.7233 2.8211 17.1408 3.54064 16.3756 3.99746C17.118 3.91755 17.8375 3.71192 18.4999 3.42642C17.9975 4.15735 17.3693 4.80834 16.6497 5.33375V5.33375Z" fill="white"/>
</g>
<defs>
<clipPath id="clip0">
<rect width="18" height="18" fill="white" transform="translate(0.5)"/>
</clipPath>
</defs>
</svg>
